<?xml version="1.0" encoding="utf-8"?>
<!-- Generator: Adobe Illustrator 21.1.0, SVG Export Plug-In . SVG Version: 6.00 Build 0)  -->
<svg version="1.1" xmlns="http://www.w3.org/2000/svg" xmlns:xlink="http://www.w3.org/1999/xlink" x="0px" y="0px"
	 viewBox="0 0 1193 480" style="enable-background:new 0 0 1193 480;" xml:space="preserve">
<style type="text/css">
	.st0{fill:#AB9A4A;}
	.st1{fill:#00FFFF;}
</style>
<g id="Layer_2">
	<path class="st0" d="M569,239.5c0-80.1-48.4-149-117.5-178.9C409,22.8,353.1-0.2,291.8-0.2c-100.2,0-186,61.3-222,148.4
		C29.6,159.1,0,195.9,0,239.5c0,43.5,29.4,80.1,69.3,91.1c35.8,87.7,121.9,149.5,222.5,149.5c62.3,0,119.1-23.8,161.8-62.7
		C521.6,387.1,569,318.8,569,239.5z"/>
</g>
<g id="Layer_5">
	<path class="st0" d="M548,264.3v-48.5c0-6.4,5.3-11.5,11.7-11.2l622.2,24.3c14.3,0.6,14.3,21.8,0,22.4l-622.2,24.3
		C553.3,275.7,548,270.6,548,264.3z"/>
</g>
<g id="Layer_4">
	<g>
		<circle cx="118.5" cy="185.5" r="18"/>
		<circle cx="118.5" cy="294.5" r="18"/>
	</g>
</g>
<g id="Layer_3">
	<circle class="st1" cx="223" cy="203" r="12"/>
	<circle class="st1" cx="223" cy="115" r="12"/>
	<circle class="st1" cx="368" cy="127" r="12"/>
	<circle class="st1" cx="410" cy="230" r="12"/>
	<circle class="st1" cx="284" cy="341" r="12"/>
	<circle class="st1" cx="262" cy="135.1" r="9"/>
	<circle class="st1" cx="262" cy="69" r="9"/>
	<circle class="st1" cx="371" cy="78" r="9"/>
	<circle class="st1" cx="376.5" cy="197" r="9"/>
	<circle class="st1" cx="307.9" cy="238.9" r="9"/>
	<ellipse transform="matrix(0.9047 -0.426 0.426 0.9047 -88.2466 211.6606)" class="st1" cx="429.1" cy="303.1" rx="12" ry="12"/>
	<ellipse transform="matrix(0.9047 -0.426 0.426 0.9047 -25.304 223.0875)" class="st1" cx="486.1" cy="168.1" rx="12" ry="12"/>
	<ellipse transform="matrix(0.9047 -0.426 0.426 0.9047 -106.0776 242.1354)" class="st1" cx="488.3" cy="358.2" rx="12" ry="12"/>
	<ellipse transform="matrix(0.9047 -0.426 0.426 0.9047 -146.1737 177.6649)" class="st1" cx="324.1" cy="415.6" rx="12" ry="12"/>
	<ellipse transform="matrix(0.9047 -0.426 0.426 0.9047 -162.7299 144.6659)" class="st1" cx="242.1" cy="436.2" rx="12" ry="12"/>
	<ellipse transform="matrix(0.9047 -0.426 0.426 0.9047 -65.975 218.6223)" class="st1" cx="455.8" cy="256.8" rx="9" ry="9"/>
	<ellipse transform="matrix(0.9047 -0.426 0.426 0.9047 -54.0146 233.7628)" class="st1" cx="495.6" cy="237.6" rx="9" ry="9"/>
	<ellipse transform="matrix(0.9047 -0.426 0.426 0.9047 -79.097 252.4586)" class="st1" cx="524.9" cy="303.1" rx="9" ry="9"/>
	<ellipse transform="matrix(0.9047 -0.426 0.426 0.9047 -138.4303 211.4357)" class="st1" cx="403.5" cy="415.2" rx="9" ry="9"/>
	<ellipse transform="matrix(0.9047 -0.426 0.426 0.9047 -115.2765 187.4704)" class="st1" cx="361.5" cy="351.5" rx="9" ry="9"/>
	<ellipse transform="matrix(0.1975 -0.9803 0.9803 0.1975 -50.3259 332.692)" class="st1" cx="178" cy="197.1" rx="12" ry="12"/>
	<ellipse transform="matrix(0.1975 -0.9803 0.9803 0.1975 35.9652 220.1966)" class="st1" cx="152.5" cy="88.1" rx="12" ry="12"/>
	<ellipse transform="matrix(0.1975 -0.9803 0.9803 0.1975 81.4702 437.6885)" class="st1" cx="308.1" cy="169.1" rx="12" ry="12"/>
	
		<ellipse transform="matrix(0.1975 -0.9803 0.9803 0.1975 -119.3181 392.4646)" class="st1" cx="180.1" cy="269.1" rx="12" ry="12"/>
	<ellipse transform="matrix(0.1975 -0.9803 0.9803 0.1975 -187.7826 428.8409)" class="st1" cx="168" cy="329.1" rx="12" ry="12"/>
	<ellipse transform="matrix(0.1975 -0.9803 0.9803 0.1975 36.55 275.8256)" class="st1" cx="186.7" cy="115.6" rx="9" ry="9"/>
	<ellipse transform="matrix(0.1975 -0.9803 0.9803 0.1975 110.582 236.606)" class="st1" cx="199.8" cy="50.8" rx="9" ry="9"/>
	<ellipse transform="matrix(0.1975 -0.9803 0.9803 0.1975 210.5641 341.4643)" class="st1" cx="313.8" cy="42.1" rx="9" ry="9"/>
	<ellipse transform="matrix(0.1975 -0.9803 0.9803 0.1975 25.7186 419.209)" class="st1" cx="268.9" cy="193.9" rx="9" ry="9"/>
	<ellipse transform="matrix(0.1975 -0.9803 0.9803 0.1975 -69.1111 412.1833)" class="st1" cx="217.2" cy="248.3" rx="9" ry="9"/>
	<ellipse transform="matrix(0.971 -0.2389 0.2389 0.971 -61.5831 74.1409)" class="st1" cx="275.1" cy="291.1" rx="12" ry="12"/>
	<ellipse transform="matrix(0.971 -0.2389 0.2389 0.971 -46.3229 88.4027)" class="st1" cx="341.5" cy="235.3" rx="12" ry="12"/>
	<ellipse transform="matrix(0.971 -0.2389 0.2389 0.971 -79.9787 98.0539)" class="st1" cx="364.5" cy="379" rx="12" ry="12"/>
	<ellipse transform="matrix(0.971 -0.2389 0.2389 0.971 -90.6648 57.5853)" class="st1" cx="192.2" cy="402.8" rx="12" ry="12"/>
	<ellipse transform="matrix(0.971 -0.2389 0.2389 0.971 -79.3035 42.7356)" class="st1" cx="136.6" cy="348.5" rx="12" ry="12"/>
	<ellipse transform="matrix(0.971 -0.2389 0.2389 0.971 -56.8205 87.192)" class="st1" cx="331.3" cy="278" rx="9" ry="9"/>
	<ellipse transform="matrix(0.971 -0.2389 0.2389 0.971 -19.6317 108.4315)" class="st1" cx="437.5" cy="135.2" rx="9" ry="9"/>
	<ellipse transform="matrix(0.971 -0.2389 0.2389 0.971 -13.2685 114.9324)" class="st1" cx="467.5" cy="112.2" rx="9" ry="9"/>
	<ellipse transform="matrix(0.971 -0.2389 0.2389 0.971 -76.4788 109.3279)" class="st1" cx="412.8" cy="370.2" rx="9" ry="9"/>
	<ellipse transform="matrix(0.971 -0.2389 0.2389 0.971 -84.5092 78.9166)" class="st1" cx="283.3" cy="388.1" rx="9" ry="9"/>
	<ellipse transform="matrix(0.971 -0.2389 0.2389 0.971 -75.9714 67.7573)" class="st1" cx="241.5" cy="347.3" rx="9" ry="9"/>
</g>
</svg>
